<?xml version="1.0" encoding="UTF-8"?>
<svg xmlns="http://www.w3.org/2000/svg" xmlns:xlink="http://www.w3.org/1999/xlink" width="150px" height="172px" viewBox="0 0 150 172" version="1.1">
<g id="surface1">
<path style=" stroke:none;fill-rule:nonzero;fill:rgb(3.529412%,18.039216%,12.54902%);fill-opacity:1;" d="M 16.40625 0 L 133.59375 0 C 142.65625 0 150 8.421875 150 18.8125 L 150 153.1875 C 150 163.578125 142.65625 172 133.59375 172 L 16.40625 172 C 7.34375 172 0 163.578125 0 153.1875 L 0 18.8125 C 0 8.421875 7.34375 0 16.40625 0 Z M 16.40625 0 "/>
<path style=" stroke:none;fill-rule:nonzero;fill:rgb(100%,100%,99.215686%);fill-opacity:1;" d="M 109.207031 63.289062 L 109.207031 107.785156 C 109.207031 123.117188 108.226562 130.46875 105.292969 136.828125 C 102.574219 142.933594 98.988281 146.796875 91.597656 151.035156 L 76.050781 142.5625 C 83.445312 138.574219 87.03125 135.082031 89.3125 129.722656 C 91.703125 124.238281 92.464844 117.882812 92.464844 101.179688 L 92.464844 63.289062 Z M 82.574219 33.648438 L 82.574219 122.496094 C 73.988281 124.363281 67.683594 125.113281 60.835938 125.113281 C 40.398438 125.113281 29.746094 114.519531 29.746094 94.199219 C 29.746094 74.632812 41.050781 61.917969 58.550781 61.917969 C 61.269531 61.917969 63.335938 62.167969 65.835938 62.914062 L 65.835938 33.648438 Z M 60.183594 77.375 C 51.703125 77.375 46.8125 83.355469 46.8125 93.824219 C 46.8125 104.046875 51.488281 109.65625 60.074219 109.65625 C 61.921875 109.65625 63.445312 109.53125 65.835938 109.15625 L 65.835938 78.371094 C 63.878906 77.621094 62.25 77.375 60.183594 77.375 Z M 109.207031 33.75 L 109.207031 53.441406 L 92.464844 53.441406 L 92.464844 33.75 Z M 109.207031 33.75 "/>
</g>
</svg>
