<?xml version="1.0" encoding="UTF-8"?>
<svg xmlns="http://www.w3.org/2000/svg" xmlns:xlink="http://www.w3.org/1999/xlink" width="150px" height="172px" viewBox="0 0 150 172" version="1.1">
<g id="surface1">
<path style=" stroke:none;fill-rule:nonzero;fill:rgb(0%,67.450982%,75.686276%);fill-opacity:1;" d="M 66.238281 43.988281 L 44.976562 31.683594 L 21.632812 45.039062 L 43.476562 57.613281 Z M 66.238281 43.988281 "/>
<path style=" stroke:none;fill-rule:nonzero;fill:rgb(0%,67.450982%,75.686276%);fill-opacity:1;" d="M 75.992188 49.628906 L 98.285156 62.539062 L 75.152344 75.855469 L 53.277344 63.261719 Z M 75.992188 49.628906 "/>
<path style=" stroke:none;fill-rule:nonzero;fill:rgb(0%,67.450982%,75.686276%);fill-opacity:1;" d="M 105.769531 31.867188 L 128.675781 45.039062 L 108.183594 56.832031 L 85.84375 43.910156 Z M 105.769531 31.867188 "/>
<path style=" stroke:none;fill-rule:nonzero;fill:rgb(0%,67.450982%,75.686276%);fill-opacity:1;" d="M 95.90625 26.195312 L 75.285156 14.332031 L 54.886719 26.007812 L 76.136719 38.296875 Z M 95.90625 26.195312 "/>
<path style=" stroke:none;fill-rule:nonzero;fill:rgb(0%,67.450982%,75.686276%);fill-opacity:1;" d="M 79.789062 128.015625 L 79.789062 160.28125 L 104.765625 145.984375 L 104.742188 113.707031 Z M 79.789062 128.015625 "/>
<path style=" stroke:none;fill-rule:nonzero;fill:rgb(0%,67.450982%,75.686276%);fill-opacity:1;" d="M 104.730469 102.4375 L 104.703125 70.5 L 79.789062 84.699219 L 79.789062 116.652344 Z M 104.730469 102.4375 "/>
<path style=" stroke:none;fill-rule:nonzero;fill:rgb(0%,67.450982%,75.686276%);fill-opacity:1;" d="M 134.722656 96.457031 L 134.722656 128.847656 L 113.414062 141.035156 L 113.398438 108.792969 Z M 134.722656 96.457031 "/>
<path style=" stroke:none;fill-rule:nonzero;fill:rgb(0%,67.450982%,75.686276%);fill-opacity:1;" d="M 134.722656 85.125 L 134.722656 53.382812 L 113.371094 65.554688 L 113.390625 97.554688 Z M 134.722656 85.125 "/>
<path style=" stroke:none;fill-rule:nonzero;fill:rgb(26.666668%,54.11765%,100%);fill-opacity:1;" d="M 70.96875 84.699219 L 54.144531 74.996094 L 54.144531 116.917969 C 54.144531 116.917969 33.5625 66.707031 31.660156 62.199219 C 31.414062 61.617188 30.40625 60.976562 30.148438 60.820312 C 26.4375 58.597656 15.625 52.320312 15.625 52.320312 L 15.625 126.410156 L 30.585938 135.605469 L 30.585938 96.859375 C 30.585938 96.859375 50.945312 141.722656 51.152344 142.214844 C 51.363281 142.707031 53.398438 147.429688 55.585938 149.089844 C 58.488281 151.304688 70.957031 159.898438 70.957031 159.898438 Z M 70.96875 84.699219 "/>
</g>
</svg>
