<?xml version="1.0" encoding="UTF-8"?>
<svg xmlns="http://www.w3.org/2000/svg" xmlns:xlink="http://www.w3.org/1999/xlink" width="150px" height="172px" viewBox="0 0 150 172" version="1.1">
<g id="surface1">
<path style=" stroke:none;fill-rule:nonzero;fill:rgb(0%,0%,0%);fill-opacity:1;" d="M 0 0 C 49.5 0 99 0 150 0 C 150 56.761719 150 113.519531 150 172 C 100.5 172 51 172 0 172 C 0 115.238281 0 58.480469 0 0 Z M 0 0 "/>
<path style=" stroke:none;fill-rule:nonzero;fill:rgb(93.333334%,45.882353%,14.509805%);fill-opacity:1;" d="M 38.460938 92.847656 C 41.152344 95.414062 41.152344 95.414062 41.742188 96 C 52.34375 106.460938 67.417969 108.554688 81.03125 107.761719 C 85.203125 107.449219 89.078125 106.632812 93.078125 105.253906 C 93.53125 105.109375 93.988281 104.964844 94.460938 104.816406 C 100.136719 102.910156 105.585938 99.851562 110 95.414062 C 110.527344 94.914062 111.058594 94.414062 111.585938 93.914062 C 111.953125 93.5625 112.316406 93.210938 112.691406 92.847656 C 110.019531 102.535156 102.875 111.121094 94.988281 115.941406 C 90.699219 118.417969 86.328125 120.277344 81.539062 121.085938 C 81.101562 121.167969 81.101562 121.167969 80.65625 121.25 C 70.789062 122.820312 60.453125 119.785156 52.355469 113.410156 C 51.691406 112.839844 51.035156 112.261719 50.382812 111.671875 C 50.066406 111.386719 49.746094 111.105469 49.421875 110.8125 C 45.285156 106.910156 42.140625 102.007812 39.617188 96.695312 C 39.402344 96.25 39.1875 95.804688 38.964844 95.347656 C 38.460938 94.128906 38.460938 94.128906 38.460938 92.847656 Z M 38.460938 92.847656 "/>
<path style=" stroke:none;fill-rule:nonzero;fill:rgb(93.333334%,45.882353%,14.509805%);fill-opacity:1;" d="M 74.976562 33.585938 C 75.648438 33.589844 75.648438 33.589844 76.339844 33.59375 C 86.183594 33.804688 95.386719 38.058594 102.691406 45.351562 C 102.953125 45.609375 103.21875 45.867188 103.488281 46.132812 C 107.402344 50.203125 110.773438 55.613281 112.691406 61.183594 C 112.566406 61.464844 112.4375 61.75 112.308594 62.039062 C 111.9375 61.636719 111.9375 61.636719 111.558594 61.222656 C 106.734375 56.140625 100.753906 52.199219 94.289062 50.320312 C 93.460938 50.058594 93.460938 50.058594 92.554688 49.640625 C 91.371094 49.132812 90.207031 48.832031 88.964844 48.535156 C 88.527344 48.429688 88.089844 48.324219 87.640625 48.210938 C 83.835938 47.464844 80.066406 47.414062 76.210938 47.414062 C 75.269531 47.414062 74.328125 47.40625 73.386719 47.394531 C 61.5 47.347656 50.023438 51.289062 40.898438 59.910156 C 40.105469 60.65625 39.300781 61.355469 38.460938 62.039062 C 39.882812 56.851562 42.496094 52.324219 45.769531 48.347656 C 46.085938 47.957031 46.402344 47.566406 46.726562 47.164062 C 51.796875 41.1875 58.269531 37.191406 65.382812 35.085938 C 65.71875 34.976562 66.050781 34.871094 66.394531 34.757812 C 69.285156 33.871094 71.980469 33.566406 74.976562 33.585938 Z M 74.976562 33.585938 "/>
<path style=" stroke:none;fill-rule:nonzero;fill:rgb(60.784316%,60.784316%,60.784316%);fill-opacity:1;" d="M 49.785156 119.613281 C 51.667969 120.835938 52.78125 122.664062 53.460938 124.933594 C 53.742188 127.824219 53.554688 130.289062 51.921875 132.636719 C 49.71875 134.902344 47.867188 135.816406 44.859375 135.78125 C 42.722656 135.46875 41.285156 134.109375 39.855469 132.394531 C 38.300781 129.800781 38.109375 127.613281 38.460938 124.507812 C 39.242188 122.285156 40.519531 120.683594 42.308594 119.375 C 44.660156 118.5 47.496094 118.476562 49.785156 119.613281 Z M 49.785156 119.613281 "/>
<path style=" stroke:none;fill-rule:nonzero;fill:rgb(90.980393%,90.980393%,90.980393%);fill-opacity:1;" d="M 66.539062 70.167969 C 68.140625 70.855469 69.328125 71.652344 70.382812 73.164062 C 71.371094 75.722656 71.269531 78.183594 70.769531 80.867188 C 69.855469 82.933594 68.792969 84.144531 66.921875 85.144531 C 64.617188 85.503906 63.445312 85.453125 61.539062 83.859375 C 61.410156 86.261719 61.285156 88.660156 61.152344 91.132812 C 60.265625 91.132812 59.375 91.132812 58.460938 91.132812 C 58.460938 84.355469 58.460938 77.578125 58.460938 70.597656 C 59.222656 70.597656 59.984375 70.597656 60.769531 70.597656 C 60.894531 71.019531 61.023438 71.445312 61.152344 71.878906 C 61.472656 71.597656 61.789062 71.316406 62.117188 71.023438 C 63.570312 69.953125 64.839844 69.855469 66.539062 70.167969 Z M 66.539062 70.167969 "/>
<path style=" stroke:none;fill-rule:nonzero;fill:rgb(45.490196%,45.490196%,45.490196%);fill-opacity:1;" d="M 107.378906 24.871094 C 108.875 25.976562 109.957031 27.285156 110.769531 29.09375 C 111.109375 31.6875 110.761719 33.523438 109.386719 35.65625 C 108.335938 37.039062 107.570312 37.566406 105.941406 37.785156 C 104.183594 37.871094 102.976562 37.800781 101.371094 36.957031 C 99.589844 35.121094 98.753906 33.769531 98.628906 31.046875 C 98.710938 28.722656 99.230469 27.257812 100.769531 25.671875 C 102.914062 24.027344 104.972656 23.925781 107.378906 24.871094 Z M 107.378906 24.871094 "/>
<path style=" stroke:none;fill-rule:nonzero;fill:rgb(92.54902%,92.54902%,92.54902%);fill-opacity:1;" d="M 104.984375 70.464844 C 106.164062 71.125 106.898438 71.84375 107.667969 73.03125 C 108.078125 74.449219 108.078125 74.449219 108.078125 78.296875 C 105.15625 78.296875 102.238281 78.296875 99.230469 78.296875 C 99.742188 81.070312 99.742188 81.070312 100.632812 82.117188 C 101.917969 82.769531 103.136719 82.714844 104.519531 82.65625 C 104.789062 82.652344 105.054688 82.644531 105.332031 82.640625 C 105.992188 82.625 106.648438 82.601562 107.308594 82.578125 C 107.308594 83.28125 107.308594 83.988281 107.308594 84.714844 C 104.84375 85.53125 101.683594 85.925781 99.375 84.535156 C 97.882812 83.109375 96.726562 81.699219 96.394531 79.484375 C 96.324219 76.542969 96.902344 74.28125 98.460938 71.878906 C 100.296875 69.960938 102.652344 69.546875 104.984375 70.464844 Z M 104.984375 70.464844 "/>
<path style=" stroke:none;fill-rule:nonzero;fill:rgb(94.901961%,94.901961%,94.901961%);fill-opacity:1;" d="M 51.921875 70.167969 C 52.683594 70.167969 53.445312 70.167969 54.230469 70.167969 C 54.230469 75.109375 54.230469 80.054688 54.230469 85.144531 C 53.46875 85.144531 52.707031 85.144531 51.921875 85.144531 C 51.796875 84.578125 51.667969 84.015625 51.539062 83.433594 C 51.371094 83.636719 51.207031 83.839844 51.035156 84.046875 C 49.769531 85.351562 48.265625 85.3125 46.625 85.292969 C 45.222656 85.050781 44.660156 84.242188 43.847656 83.003906 C 43.15625 81.414062 42.984375 80.167969 43 78.410156 C 43.003906 77.953125 43.007812 77.496094 43.007812 77.027344 C 43.015625 76.554688 43.023438 76.082031 43.027344 75.597656 C 43.03125 75.117188 43.035156 74.636719 43.039062 74.144531 C 43.046875 72.960938 43.0625 71.777344 43.078125 70.597656 C 43.839844 70.597656 44.601562 70.597656 45.382812 70.597656 C 45.390625 70.886719 45.398438 71.175781 45.40625 71.472656 C 45.445312 72.785156 45.488281 74.097656 45.527344 75.410156 C 45.539062 75.867188 45.550781 76.320312 45.566406 76.789062 C 45.578125 77.226562 45.59375 77.667969 45.609375 78.117188 C 45.621094 78.519531 45.632812 78.925781 45.648438 79.339844 C 45.773438 80.472656 45.988281 81.191406 46.539062 82.148438 C 47.632812 82.757812 48.40625 82.710938 49.617188 82.578125 C 50.5 81.777344 51.03125 81.140625 51.539062 80.011719 C 51.597656 79.265625 51.632812 78.519531 51.660156 77.773438 C 51.675781 77.332031 51.691406 76.890625 51.710938 76.4375 C 51.722656 75.972656 51.738281 75.511719 51.753906 75.035156 C 51.769531 74.570312 51.789062 74.105469 51.804688 73.625 C 51.847656 72.472656 51.886719 71.320312 51.921875 70.167969 Z M 51.921875 70.167969 "/>
<path style=" stroke:none;fill-rule:nonzero;fill:rgb(94.117647%,94.117647%,94.117647%);fill-opacity:1;" d="M 72.691406 70.597656 C 73.582031 70.597656 74.46875 70.597656 75.382812 70.597656 C 75.460938 70.820312 75.539062 71.042969 75.621094 71.269531 C 75.972656 72.285156 76.328125 73.300781 76.683594 74.3125 C 76.804688 74.664062 76.925781 75.011719 77.050781 75.371094 C 77.644531 77.0625 78.234375 78.753906 78.847656 80.4375 C 79.953125 77.605469 80.964844 74.804688 81.699219 71.820312 C 81.921875 71.023438 81.921875 71.023438 82.308594 70.597656 C 83.078125 70.578125 83.847656 70.578125 84.617188 70.597656 C 84.230469 73.128906 83.34375 75.425781 82.5 77.804688 C 82.214844 78.609375 81.933594 79.417969 81.652344 80.222656 C 78.59375 88.898438 78.59375 88.898438 75.382812 91.132812 C 74.53125 91.414062 74.53125 91.414062 73.847656 91.5625 C 73.71875 90.714844 73.59375 89.867188 73.460938 88.996094 C 73.8125 88.757812 74.160156 88.519531 74.519531 88.273438 C 75.746094 87.304688 76.539062 86.578125 77.308594 85.144531 C 77.152344 83.214844 76.625 81.59375 75.960938 79.8125 C 75.675781 79.046875 75.675781 79.046875 75.386719 78.265625 C 75.183594 77.734375 74.984375 77.199219 74.785156 76.667969 C 74.390625 75.613281 73.996094 74.558594 73.605469 73.503906 C 73.429688 73.039062 73.253906 72.574219 73.074219 72.09375 C 72.691406 71.023438 72.691406 71.023438 72.691406 70.597656 Z M 72.691406 70.597656 "/>
<path style=" stroke:none;fill-rule:nonzero;fill:rgb(2.352941%,2.352941%,2.352941%);fill-opacity:1;" d="M 64.710938 72.175781 C 66.367188 72.328125 66.917969 72.734375 68.078125 74.019531 C 68.933594 75.925781 68.652344 78.371094 68.460938 80.4375 C 67.996094 81.851562 67.699219 82.082031 66.539062 83.003906 C 64.765625 83.484375 63.503906 83.257812 61.898438 82.308594 C 60.683594 79.957031 60.789062 77.519531 61.152344 74.875 C 61.703125 73.769531 62.109375 73.445312 63.078125 72.734375 C 63.460938 72.308594 63.460938 72.308594 64.710938 72.175781 Z M 64.710938 72.175781 "/>
<path style=" stroke:none;fill-rule:nonzero;fill:rgb(37.254903%,37.254903%,37.254903%);fill-opacity:1;" d="M 39.519531 34.976562 C 41.390625 35.007812 42.414062 35.679688 43.773438 37.089844 C 44.449219 38.554688 44.53125 39.917969 44.230469 41.503906 C 43.554688 42.792969 42.757812 43.820312 41.539062 44.496094 C 39.804688 44.730469 38.480469 44.753906 36.945312 43.777344 C 35.699219 42.214844 35.375 41.246094 35.410156 39.148438 C 35.835938 37.375 36.449219 36.6875 37.691406 35.511719 C 38.078125 35.085938 38.078125 35.085938 39.519531 34.976562 Z M 39.519531 34.976562 "/>
<path style=" stroke:none;fill-rule:nonzero;fill:rgb(88.235295%,88.235295%,88.235295%);fill-opacity:1;" d="M 36.152344 70.167969 C 37.042969 70.167969 37.929688 70.167969 38.847656 70.167969 C 38.902344 72.550781 38.945312 74.933594 38.972656 77.316406 C 38.984375 78.125 39 78.9375 39.019531 79.746094 C 39.046875 80.914062 39.0625 82.078125 39.070312 83.246094 C 39.082031 83.605469 39.09375 83.964844 39.109375 84.335938 C 39.109375 86.707031 38.644531 87.945312 37.1875 89.683594 C 35.839844 90.921875 34.816406 91.242188 33.078125 91.132812 C 33.078125 90.429688 33.078125 89.722656 33.078125 88.996094 C 33.449219 88.800781 33.824219 88.605469 34.207031 88.40625 C 35.410156 87.859375 35.410156 87.859375 35.769531 86.855469 C 35.828125 85.609375 35.867188 84.371094 35.890625 83.121094 C 35.898438 82.753906 35.90625 82.382812 35.914062 82.003906 C 35.941406 80.820312 35.964844 79.640625 35.984375 78.457031 C 36.003906 77.660156 36.019531 76.859375 36.035156 76.058594 C 36.078125 74.097656 36.117188 72.132812 36.152344 70.167969 Z M 36.152344 70.167969 "/>
<path style=" stroke:none;fill-rule:nonzero;fill:rgb(96.470588%,96.470588%,96.470588%);fill-opacity:1;" d="M 91.152344 66.320312 C 91.152344 67.730469 91.152344 69.140625 91.152344 70.597656 C 92.296875 70.597656 93.4375 70.597656 94.617188 70.597656 C 94.617188 71.160156 94.617188 71.726562 94.617188 72.308594 C 93.472656 72.308594 92.332031 72.308594 91.152344 72.308594 C 91.28125 75.554688 91.40625 78.804688 91.539062 82.148438 C 92.425781 82.433594 93.316406 82.714844 94.230469 83.003906 C 94.230469 83.710938 94.230469 84.417969 94.230469 85.144531 C 91.101562 85.410156 91.101562 85.410156 89.808594 84.367188 C 88.875 82.855469 88.800781 81.660156 88.808594 79.871094 C 88.808594 79.210938 88.808594 79.210938 88.8125 78.539062 C 88.816406 78.078125 88.820312 77.621094 88.820312 77.148438 C 88.824219 76.683594 88.824219 76.222656 88.828125 75.742188 C 88.832031 74.597656 88.839844 73.453125 88.847656 72.308594 C 88.210938 72.308594 87.578125 72.308594 86.921875 72.308594 C 86.921875 71.742188 86.921875 71.179688 86.921875 70.597656 C 87.558594 70.597656 88.191406 70.597656 88.847656 70.597656 C 88.847656 69.328125 88.847656 68.054688 88.847656 66.746094 C 90.382812 66.320312 90.382812 66.320312 91.152344 66.320312 Z M 91.152344 66.320312 "/>
<path style=" stroke:none;fill-rule:nonzero;fill:rgb(87.058824%,87.058824%,87.058824%);fill-opacity:1;" d="M 111.539062 70.167969 C 112.300781 70.167969 113.0625 70.167969 113.847656 70.167969 C 113.972656 70.734375 114.101562 71.296875 114.230469 71.878906 C 114.507812 71.597656 114.785156 71.316406 115.070312 71.023438 C 116.238281 70.101562 116.691406 69.992188 118.078125 70.167969 C 118.078125 71.015625 118.078125 71.863281 118.078125 72.734375 C 117.433594 72.910156 117.433594 72.910156 116.777344 73.082031 C 115.300781 73.445312 115.300781 73.445312 114.617188 74.875 C 114.480469 75.945312 114.480469 75.945312 114.46875 77.136719 C 114.457031 77.578125 114.445312 78.015625 114.429688 78.464844 C 114.417969 78.921875 114.410156 79.378906 114.398438 79.847656 C 114.375 80.753906 114.351562 81.660156 114.324219 82.566406 C 114.316406 82.96875 114.308594 83.371094 114.296875 83.785156 C 114.230469 84.714844 114.230469 84.714844 113.847656 85.144531 C 113.085938 85.144531 112.324219 85.144531 111.539062 85.144531 C 111.539062 80.203125 111.539062 75.261719 111.539062 70.167969 Z M 111.539062 70.167969 "/>
<path style=" stroke:none;fill-rule:nonzero;fill:rgb(4.705882%,4.705882%,4.705882%);fill-opacity:1;" d="M 103.847656 71.878906 C 104.953125 72.816406 104.953125 72.816406 105.769531 74.019531 C 105.769531 74.726562 105.769531 75.433594 105.769531 76.160156 C 103.613281 76.160156 101.453125 76.160156 99.230469 76.160156 C 99.617188 73.59375 99.617188 73.59375 100.457031 72.574219 C 101.753906 71.742188 102.371094 71.574219 103.847656 71.878906 Z M 103.847656 71.878906 "/>
<path style=" stroke:none;fill-rule:nonzero;fill:rgb(87.058824%,43.137255%,13.333334%);fill-opacity:1;" d="M 38.460938 92.847656 C 41.78125 95.882812 41.78125 95.882812 42.308594 97.125 C 42.28125 98.308594 42.117188 99.375 41.921875 100.546875 C 40.28125 98.515625 38.460938 95.65625 38.460938 92.847656 Z M 38.460938 92.847656 "/>
<path style=" stroke:none;fill-rule:nonzero;fill:rgb(87.058824%,43.529412%,14.117648%);fill-opacity:1;" d="M 40.769531 56.050781 C 41.539062 57.332031 41.539062 57.332031 41.539062 58.1875 C 41.792969 58.332031 42.046875 58.472656 42.308594 58.617188 C 40.59375 60.3125 40.59375 60.3125 38.847656 62.039062 C 38.71875 61.757812 38.59375 61.476562 38.460938 61.183594 C 38.929688 59.976562 38.929688 59.976562 39.589844 58.5625 C 39.808594 58.09375 40.027344 57.625 40.25 57.144531 C 40.421875 56.78125 40.59375 56.421875 40.769531 56.050781 Z M 40.769531 56.050781 "/>
<path style=" stroke:none;fill-rule:nonzero;fill:rgb(70.980394%,36.470589%,12.54902%);fill-opacity:1;" d="M 38.460938 92.847656 C 39.097656 93.410156 39.730469 93.976562 40.382812 94.558594 C 40.257812 95.261719 40.128906 95.96875 40 96.695312 C 39.039062 95.4375 38.664062 94.480469 38.460938 92.847656 Z M 38.460938 92.847656 "/>
<path style=" stroke:none;fill-rule:nonzero;fill:rgb(81.176472%,40.784314%,14.509805%);fill-opacity:1;" d="M 39.617188 58.617188 C 39.742188 58.898438 39.871094 59.183594 40 59.472656 C 40.253906 59.613281 40.507812 59.753906 40.769531 59.902344 C 39.625 60.960938 39.625 60.960938 38.460938 62.039062 C 39.183594 59.578125 39.183594 59.578125 39.617188 58.617188 Z M 39.617188 58.617188 "/>
</g>
</svg>
