<?xml version="1.0" encoding="UTF-8"?>
<svg xmlns="http://www.w3.org/2000/svg" xmlns:xlink="http://www.w3.org/1999/xlink" width="150px" height="172px" viewBox="0 0 150 172" version="1.1">
<g id="surface1">
<path style=" stroke:none;fill-rule:nonzero;fill:rgb(100%,75.686276%,2.745098%);fill-opacity:1;" d="M 125 146.917969 L 25 146.917969 C 18.105469 146.917969 12.5 140.488281 12.5 132.582031 L 12.5 39.417969 C 12.5 31.511719 18.105469 25.082031 25 25.082031 L 125 25.082031 C 131.894531 25.082031 137.5 31.511719 137.5 39.417969 L 137.5 132.582031 C 137.5 140.488281 131.894531 146.917969 125 146.917969 Z M 125 146.917969 "/>
<path style=" stroke:none;fill-rule:nonzero;fill:rgb(12.941177%,12.941177%,12.941177%);fill-opacity:1;" d="M 106.25 46.511719 L 43.8125 46.511719 C 36.9375 46.511719 31.3125 52.925781 31.3125 60.84375 L 31.3125 107.5 C 31.3125 114.164062 35.28125 119.753906 40.625 121.332031 L 40.625 113.664062 C 38.78125 112.410156 37.5625 110.117188 37.5625 107.5 L 37.5625 60.84375 C 37.5625 56.902344 40.375 53.679688 43.8125 53.679688 L 106.25 53.679688 C 109.6875 53.679688 112.5 56.902344 112.5 60.84375 L 112.5 107.5 C 112.5 110.152344 111.25 112.445312 109.375 113.699219 L 109.375 121.367188 C 114.78125 119.789062 118.75 114.164062 118.75 107.5 L 118.75 60.84375 C 118.75 52.925781 113.15625 46.511719 106.25 46.511719 Z M 106.25 46.511719 "/>
<path style=" stroke:none;fill-rule:nonzero;fill:rgb(12.941177%,12.941177%,12.941177%);fill-opacity:1;" d="M 51.5625 100.332031 C 54.148438 100.332031 56.25 102.742188 56.25 105.707031 L 56.25 123.625 C 56.25 126.59375 54.148438 129 51.5625 129 C 48.976562 129 46.875 126.59375 46.875 123.625 L 46.875 105.707031 C 46.875 102.742188 48.976562 100.332031 51.5625 100.332031 Z M 51.5625 100.332031 "/>
<path style=" stroke:none;fill-rule:nonzero;fill:rgb(12.941177%,12.941177%,12.941177%);fill-opacity:1;" d="M 67.1875 78.832031 C 69.773438 78.832031 71.875 81.242188 71.875 84.207031 L 71.875 123.625 C 71.875 126.59375 69.773438 129 67.1875 129 C 64.601562 129 62.5 126.59375 62.5 123.625 L 62.5 84.207031 C 62.5 81.242188 64.601562 78.832031 67.1875 78.832031 Z M 67.1875 78.832031 "/>
<path style=" stroke:none;fill-rule:nonzero;fill:rgb(12.941177%,12.941177%,12.941177%);fill-opacity:1;" d="M 82.8125 89.582031 C 85.398438 89.582031 87.5 91.992188 87.5 94.957031 L 87.5 123.625 C 87.5 126.59375 85.398438 129 82.8125 129 C 80.226562 129 78.125 126.59375 78.125 123.625 L 78.125 94.957031 C 78.125 91.992188 80.226562 89.582031 82.8125 89.582031 Z M 82.8125 89.582031 "/>
<path style=" stroke:none;fill-rule:nonzero;fill:rgb(12.941177%,12.941177%,12.941177%);fill-opacity:1;" d="M 98.4375 64.5 C 101.023438 64.5 103.125 66.90625 103.125 69.875 L 103.125 123.625 C 103.125 126.59375 101.023438 129 98.4375 129 C 95.851562 129 93.75 126.59375 93.75 123.625 L 93.75 69.875 C 93.75 66.90625 95.851562 64.5 98.4375 64.5 Z M 98.4375 64.5 "/>
</g>
</svg>
