<?xml version="1.0" encoding="UTF-8"?>
<svg xmlns="http://www.w3.org/2000/svg" xmlns:xlink="http://www.w3.org/1999/xlink" width="150px" height="172px" viewBox="0 0 150 172" version="1.1">
<g id="surface1">
<path style=" stroke:none;fill-rule:nonzero;fill:rgb(0.784314%,46.666667%,74.117649%);fill-opacity:1;" d="M 75.148438 17.917969 C 70.289062 17.933594 66.917969 18.425781 62.847656 19.230469 C 50.820312 21.632812 48.632812 26.675781 48.632812 35.964844 L 48.632812 50.167969 L 76.757812 50.167969 L 76.757812 57.332031 L 33.96875 57.332031 C 25.730469 57.332031 18.523438 61.785156 16.238281 72.453125 C 13.65625 84.695312 13.539062 92.363281 16.238281 105.148438 C 18.285156 114.683594 22.792969 121.832031 31.035156 121.832031 L 42.382812 121.832031 L 42.382812 103.542969 C 42.382812 92.914062 50.777344 82.417969 60.398438 82.417969 L 83.007812 82.417969 C 90.894531 82.417969 98.632812 75.746094 98.632812 66.730469 L 98.632812 35.964844 C 98.632812 27.226562 93.136719 20.691406 85.453125 19.222656 C 85.644531 19.203125 79.964844 17.894531 75.148438 17.917969 Z M 59.570312 32.25 C 62.136719 32.25 64.257812 34.675781 64.257812 37.632812 C 64.257812 40.617188 62.136719 43 59.570312 43 C 56.957031 43 54.882812 40.621094 54.882812 37.632812 C 54.882812 34.6875 56.957031 32.25 59.570312 32.25 Z M 59.570312 32.25 "/>
<path style=" stroke:none;fill-rule:nonzero;fill:rgb(100%,75.686276%,2.745098%);fill-opacity:1;" d="M 72.117188 154.082031 C 76.976562 154.066406 80.347656 153.574219 84.417969 152.769531 C 96.445312 150.367188 98.632812 145.324219 98.632812 136.035156 L 98.632812 121.832031 L 70.507812 121.832031 L 70.507812 114.667969 L 113.300781 114.667969 C 121.539062 114.667969 128.746094 110.214844 131.03125 99.546875 C 133.613281 87.304688 133.726562 79.636719 131.03125 66.851562 C 128.980469 57.316406 124.472656 50.167969 116.230469 50.167969 L 104.882812 50.167969 L 104.882812 68.457031 C 104.882812 79.085938 96.488281 89.582031 86.867188 89.582031 L 64.257812 89.582031 C 56.371094 89.582031 48.632812 96.253906 48.632812 105.269531 L 48.632812 136.035156 C 48.632812 144.773438 54.128906 151.308594 61.8125 152.777344 C 61.621094 152.796875 67.300781 154.105469 72.117188 154.082031 Z M 87.695312 139.75 C 85.132812 139.75 83.007812 137.324219 83.007812 134.367188 C 83.007812 131.382812 85.132812 129 87.695312 129 C 90.3125 129 92.382812 131.378906 92.382812 134.367188 C 92.382812 137.3125 90.308594 139.75 87.695312 139.75 Z M 87.695312 139.75 "/>
</g>
</svg>
