<?xml version="1.0" encoding="UTF-8"?>
<svg xmlns="http://www.w3.org/2000/svg" xmlns:xlink="http://www.w3.org/1999/xlink" width="150px" height="172px" viewBox="0 0 150 172" version="1.1">
<g id="surface1">
<path style=" stroke:none;fill-rule:nonzero;fill:rgb(10.196079%,13.725491%,49.411765%);fill-opacity:1;" d="M 56.25 14.332031 L 71.875 14.332031 L 71.875 50.167969 L 56.25 50.167969 Z M 56.25 14.332031 "/>
<path style=" stroke:none;fill-rule:nonzero;fill:rgb(10.196079%,13.725491%,49.411765%);fill-opacity:1;" d="M 56.25 89.582031 L 71.875 89.582031 L 71.875 125.417969 L 56.25 125.417969 Z M 56.25 89.582031 "/>
<path style=" stroke:none;fill-rule:nonzero;fill:rgb(98.431373%,75.294119%,17.647059%);fill-opacity:1;" d="M 56.25 60.917969 L 71.875 60.917969 L 71.875 78.832031 L 56.25 78.832031 Z M 56.25 60.917969 "/>
<path style=" stroke:none;fill-rule:nonzero;fill:rgb(10.196079%,13.725491%,49.411765%);fill-opacity:1;" d="M 31.25 46.582031 L 46.875 46.582031 L 46.875 164.832031 L 31.25 164.832031 Z M 31.25 46.582031 "/>
<path style=" stroke:none;fill-rule:nonzero;fill:rgb(10.196079%,13.725491%,49.411765%);fill-opacity:1;" d="M 81.25 118.25 L 96.875 118.25 L 96.875 154.082031 L 81.25 154.082031 Z M 81.25 118.25 "/>
<path style=" stroke:none;fill-rule:nonzero;fill:rgb(10.196079%,13.725491%,49.411765%);fill-opacity:1;" d="M 81.25 43 L 96.875 43 L 96.875 78.832031 L 81.25 78.832031 Z M 81.25 43 "/>
<path style=" stroke:none;fill-rule:nonzero;fill:rgb(100%,25.098041%,50.588238%);fill-opacity:1;" d="M 81.25 89.582031 L 96.875 89.582031 L 96.875 107.5 L 81.25 107.5 Z M 81.25 89.582031 "/>
<path style=" stroke:none;fill-rule:nonzero;fill:rgb(10.196079%,13.725491%,49.411765%);fill-opacity:1;" d="M 106.25 7.167969 L 121.875 7.167969 L 121.875 125.417969 L 106.25 125.417969 Z M 106.25 7.167969 "/>
</g>
</svg>
