<?xml version="1.0" encoding="UTF-8"?>
<svg xmlns="http://www.w3.org/2000/svg" xmlns:xlink="http://www.w3.org/1999/xlink" width="150px" height="172px" viewBox="0 0 150 172" version="1.1">
<defs>
<linearGradient id="linear0" gradientUnits="userSpaceOnUse" x1="358.035095" y1="116.058502" x2="753.355103" y2="116.058502" gradientTransform="matrix(0.182625,0,0,0.27191,-26.572684,64.188592)">
<stop offset="0" style="stop-color:rgb(3.529412%,36.078431%,63.529412%);stop-opacity:1;"/>
<stop offset="0.07" style="stop-color:rgb(4.313725%,38.039216%,66.666667%);stop-opacity:1;"/>
<stop offset="0.36" style="stop-color:rgb(12.941176%,43.921569%,71.764706%);stop-opacity:1;"/>
<stop offset="0.52" style="stop-color:rgb(16.078431%,45.490196%,72.941176%);stop-opacity:1;"/>
<stop offset="0.64" style="stop-color:rgb(14.117647%,44.313725%,72.156863%);stop-opacity:1;"/>
<stop offset="0.82" style="stop-color:rgb(9.019608%,41.568627%,70.196078%);stop-opacity:1;"/>
<stop offset="1" style="stop-color:rgb(3.529412%,36.078431%,63.529412%);stop-opacity:1;"/>
</linearGradient>
<radialGradient id="radial0" gradientUnits="userSpaceOnUse" cx="566.58252" cy="129.787994" fx="566.58252" fy="129.787994" r="218.009995" gradientTransform="matrix(0.182625,0,0,0.27191,-26.572684,64.188592)">
<stop offset="0" style="stop-color:rgb(94.901961%,94.901961%,94.901961%);stop-opacity:1;"/>
<stop offset="0.58" style="stop-color:rgb(93.72549%,93.333333%,93.333333%);stop-opacity:1;"/>
<stop offset="1" style="stop-color:rgb(90.588235%,90.196078%,90.196078%);stop-opacity:1;"/>
</radialGradient>
</defs>
<g id="surface1">
<path style=" stroke:none;fill-rule:nonzero;fill:url(#linear0);" d="M 75 53.554688 C 55.019531 53.554688 38.816406 45.152344 38.816406 34.050781 L 38.816406 137.949219 C 38.816406 148.621094 54.734375 157.289062 74.492188 157.453125 L 75 157.453125 C 94.980469 157.453125 111.183594 149.050781 111.183594 137.949219 L 111.183594 34.050781 C 111.183594 44.90625 94.992188 53.554688 75 53.554688 Z M 75 53.554688 "/>
<path style=" stroke:none;fill-rule:nonzero;fill:rgb(91.37255%,90.980393%,90.980393%);fill-opacity:1;" d="M 111.183594 34.050781 C 111.183594 44.886719 94.980469 53.554688 75 53.554688 C 55.019531 53.554688 38.816406 45.152344 38.816406 34.050781 C 38.816406 22.949219 55.019531 14.546875 75 14.546875 C 94.980469 14.546875 111.183594 22.949219 111.183594 34.050781 "/>
<path style=" stroke:none;fill-rule:nonzero;fill:rgb(46.27451%,79.215688%,90.588236%);fill-opacity:1;" d="M 102.777344 32.457031 C 102.777344 39.347656 90.296875 44.90625 75 44.90625 C 59.703125 44.90625 47.222656 39.347656 47.222656 32.457031 C 47.222656 25.566406 59.703125 20.109375 75 20.109375 C 90.296875 20.109375 102.777344 25.648438 102.777344 32.457031 "/>
<path style=" stroke:none;fill-rule:nonzero;fill:rgb(10.980392%,54.509807%,70.588237%);fill-opacity:1;" d="M 75 35.5625 C 67.542969 35.277344 60.117188 36.894531 53.042969 40.347656 C 60.128906 43.742188 67.558594 45.273438 75 44.886719 C 82.457031 45.214844 89.898438 43.558594 96.957031 40 C 89.855469 36.730469 82.441406 35.214844 75 35.5625 Z M 75 35.5625 "/>
<path style=" stroke:none;fill-rule:nonzero;fill:url(#radial0);" d="M 97.023438 106.179688 L 97.023438 77.597656 L 91.945312 77.597656 L 91.945312 112.3125 L 105.828125 112.3125 L 105.828125 106.179688 Z M 56.710938 92.132812 C 55.652344 91.5 54.691406 90.621094 53.828125 89.535156 C 53.359375 88.820312 53.125 87.839844 53.152344 86.839844 C 53.113281 85.835938 53.441406 84.875 54.003906 84.324219 C 54.707031 83.609375 55.527344 83.261719 56.378906 83.320312 C 58.386719 83.179688 60.375 84.039062 62.023438 85.753906 L 62.023438 78.515625 C 60.226562 77.515625 58.304688 77.066406 56.378906 77.167969 C 54.167969 76.984375 51.988281 78.007812 50.230469 80.03125 C 48.675781 81.808594 47.796875 84.589844 47.851562 87.511719 C 47.851562 91.804688 49.664062 95.160156 53.496094 97.695312 C 54.746094 98.492188 55.925781 99.492188 57 100.71875 C 57.535156 101.394531 57.835938 102.355469 57.851562 103.398438 C 57.851562 104.441406 57.507812 105.402344 56.945312 105.996094 C 56.175781 106.667969 55.296875 106.996094 54.402344 106.914062 C 52.136719 106.894531 49.941406 105.625 48.25 103.378906 L 48.25 111.1875 C 50.117188 112.617188 52.191406 113.3125 54.292969 113.210938 C 56.65625 113.414062 59.003906 112.433594 60.953125 110.429688 C 62.355469 108.46875 63.039062 105.625 62.820312 102.785156 C 62.847656 100.636719 62.339844 98.53125 61.40625 96.898438 C 60.074219 94.851562 58.480469 93.21875 56.710938 92.132812 Z M 86.285156 105.503906 C 88.785156 99.535156 88.785156 91.96875 86.285156 86 C 85.410156 83.382812 84.035156 81.175781 82.332031 79.703125 C 80.617188 78.25 78.667969 77.496094 76.6875 77.515625 C 74.5625 77.453125 72.445312 78.230469 70.59375 79.785156 C 68.847656 81.238281 67.421875 83.382812 66.472656 86 C 65.46875 88.964844 64.976562 92.257812 65.003906 95.589844 C 65.015625 98.511719 65.46875 101.394531 66.363281 103.992188 C 67.226562 106.585938 68.574219 108.753906 70.261719 110.207031 C 71.964844 111.761719 73.914062 112.617188 75.90625 112.722656 L 80.765625 121.125 L 87.605469 121.125 L 80.65625 111.882812 C 82.976562 110.839844 84.996094 108.570312 86.285156 105.503906 Z M 80.644531 103.398438 C 79.601562 105.320312 78.019531 106.402344 76.359375 106.34375 C 74.683594 106.425781 73.089844 105.300781 72.074219 103.316406 C 70.878906 100.882812 70.304688 97.917969 70.441406 94.914062 C 70.304688 91.910156 70.894531 88.945312 72.074219 86.511719 C 73.144531 84.527344 74.765625 83.382812 76.484375 83.402344 C 78.15625 83.300781 79.75 84.464844 80.710938 86.511719 C 81.824219 88.984375 82.359375 91.949219 82.238281 94.914062 C 82.429688 97.917969 81.867188 100.945312 80.644531 103.398438 Z M 80.644531 103.398438 "/>
</g>
</svg>
