<?xml version="1.0" encoding="UTF-8"?>
<svg xmlns="http://www.w3.org/2000/svg" xmlns:xlink="http://www.w3.org/1999/xlink" width="150px" height="172px" viewBox="0 0 150 172" version="1.1">
<defs>
<linearGradient id="linear0" gradientUnits="userSpaceOnUse" x1="-15.615" y1="-9.108" x2="-6.741" y2="-9.108" gradientTransform="matrix(0.000000000000000665,12.458175,-10.864688,0.000000000000000763,-30.295309,208.442504)">
<stop offset="0" style="stop-color:rgb(58.431373%,84.313725%,95.686275%);stop-opacity:1;"/>
<stop offset="0.92" style="stop-color:rgb(5.882353%,49.803922%,80%);stop-opacity:1;"/>
<stop offset="1" style="stop-color:rgb(5.882353%,49.803922%,80%);stop-opacity:1;"/>
</linearGradient>
</defs>
<g id="surface1">
<path style=" stroke:none;fill-rule:nonzero;fill:rgb(4.313726%,49.803922%,80.000001%);fill-opacity:1;" d="M 81.445312 133.269531 C 81.375 132.285156 81.335938 131.65625 81.335938 131.65625 C 81.335938 131.65625 78.75 111.648438 75.667969 105.675781 C 75.183594 104.726562 75.71875 100.847656 77.082031 95.085938 C 77.878906 96.65625 81.230469 103.40625 81.90625 105.582031 C 82.667969 108.03125 82.820312 108.734375 82.820312 108.734375 C 82.820312 108.734375 80.980469 97.875 77.964844 91.539062 C 78.699219 88.714844 79.480469 85.90625 80.3125 83.121094 C 81.453125 85.417969 84.195312 90.992188 84.800781 92.929688 C 84.917969 93.324219 85.023438 93.660156 85.117188 93.96875 C 85.144531 93.785156 85.175781 93.601562 85.203125 93.414062 C 84.511719 90.046875 83.152344 84.195312 81.292969 79.867188 C 85.417969 55.238281 99.496094 22.320312 113.917969 7.632812 L 19.804688 7.632812 C 13.492188 7.632812 8.332031 13.554688 8.332031 20.789062 L 8.332031 139.804688 C 8.332031 147.039062 13.496094 152.957031 19.804688 152.957031 L 81.792969 152.957031 C 81.324219 146.410156 81.207031 139.832031 81.445312 133.269531 "/>
<path style=" stroke:none;fill-rule:nonzero;fill:url(#linear0);" d="M 77.082031 95.085938 C 77.878906 96.65625 81.230469 103.402344 81.90625 105.578125 C 82.667969 108.03125 82.824219 108.734375 82.824219 108.734375 C 82.824219 108.734375 80.984375 97.875 77.964844 91.539062 C 78.699219 88.710938 79.484375 85.902344 80.3125 83.113281 C 81.355469 85.21875 83.738281 90.058594 84.59375 92.347656 L 84.691406 91.054688 C 83.929688 87.703125 82.777344 83.308594 81.292969 79.863281 C 85.09375 57.195312 97.324219 27.5 110.503906 11.46875 L 19.804688 11.46875 C 15.316406 11.476562 11.683594 15.644531 11.679688 20.785156 L 11.679688 131.121094 C 32.21875 122.078125 56.988281 113.8125 78.304688 114.171875 C 77.515625 110.671875 76.617188 107.507812 75.667969 105.675781 C 75.183594 104.722656 75.71875 100.839844 77.082031 95.085938 "/>
<path style=" stroke:none;fill-rule:nonzero;fill:rgb(0%,22.352941%,33.725491%);fill-opacity:1;" d="M 135.878906 3.738281 C 129.433594 -2.855469 121.625 -0.203125 113.925781 7.632812 C 112.734375 8.851562 111.597656 10.132812 110.511719 11.472656 C 97.328125 27.5 85.097656 57.191406 81.300781 79.863281 C 82.777344 83.308594 83.9375 87.703125 84.691406 91.054688 C 84.886719 91.914062 85.066406 92.722656 85.210938 93.414062 C 85.542969 95.035156 85.722656 96.09375 85.722656 96.09375 C 85.722656 96.09375 85.601562 95.578125 85.117188 93.96875 C 85.027344 93.660156 84.921875 93.316406 84.800781 92.929688 C 84.75 92.761719 84.679688 92.5625 84.601562 92.347656 C 83.738281 90.058594 81.359375 85.21875 80.316406 83.117188 C 79.421875 86.140625 78.632812 88.976562 77.96875 91.539062 C 80.988281 97.875 82.828125 108.734375 82.828125 108.734375 C 82.828125 108.734375 82.667969 108.03125 81.914062 105.578125 C 81.234375 103.402344 77.878906 96.65625 77.089844 95.085938 C 75.722656 100.839844 75.183594 104.722656 75.671875 105.675781 C 76.621094 107.503906 77.519531 110.675781 78.3125 114.171875 C 80.097656 122.054688 81.339844 131.65625 81.339844 131.65625 C 81.339844 131.65625 81.378906 132.285156 81.453125 133.269531 C 81.214844 139.832031 81.328125 146.410156 81.800781 152.957031 C 82.390625 161.167969 83.5 168.226562 84.921875 172 L 85.890625 171.398438 C 83.804688 163.960938 82.957031 154.207031 83.328125 142.96875 C 83.890625 125.777344 87.335938 105.054688 93.707031 83.453125 C 104.476562 50.84375 119.414062 24.683594 133.082031 12.1875 C 120.621094 25.09375 103.757812 66.859375 98.710938 82.328125 C 93.0625 99.648438 89.054688 115.898438 86.636719 131.472656 C 90.796875 116.875 104.269531 110.605469 104.269531 110.605469 C 104.269531 110.605469 110.875 101.253906 118.601562 87.910156 C 113.96875 89.125 106.375 91.191406 103.835938 92.414062 C 100.085938 94.222656 99.070312 94.832031 99.070312 94.832031 C 99.070312 94.832031 111.222656 86.351562 121.652344 82.511719 C 135.988281 56.617188 151.609375 19.828125 135.878906 3.738281 "/>
</g>
</svg>
