<?xml version="1.0" encoding="UTF-8"?>
<svg xmlns="http://www.w3.org/2000/svg" xmlns:xlink="http://www.w3.org/1999/xlink" width="150px" height="172px" viewBox="0 0 150 172" version="1.1">
<g id="surface1">
<path style=" stroke:none;fill-rule:nonzero;fill:rgb(8.627451%,56.862748%,32.941177%);fill-opacity:1;" d="M 90.625 21.5 L 49.199219 21.5 C 46.191406 21.5 43.75 24.296875 43.75 27.75 L 43.75 53.761719 L 90.625 53.761719 Z M 90.625 21.5 "/>
<path style=" stroke:none;fill-rule:nonzero;fill:rgb(9.411765%,28.235295%,16.470589%);fill-opacity:1;" d="M 43.75 118.445312 L 43.75 144.25 C 43.75 147.703125 46.191406 150.5 49.195312 150.5 L 90.625 150.5 L 90.625 118.445312 Z M 43.75 118.445312 "/>
<path style=" stroke:none;fill-rule:nonzero;fill:rgb(4.705882%,50.196081%,27.058825%);fill-opacity:1;" d="M 43.75 53.761719 L 90.625 53.761719 L 90.625 86.019531 L 43.75 86.019531 Z M 43.75 53.761719 "/>
<path style=" stroke:none;fill-rule:nonzero;fill:rgb(9.019608%,27.843139%,16.470589%);fill-opacity:1;" d="M 43.75 86.019531 L 90.625 86.019531 L 90.625 118.445312 L 43.75 118.445312 Z M 43.75 86.019531 "/>
<path style=" stroke:none;fill-rule:nonzero;fill:rgb(16.078432%,76.078433%,49.803922%);fill-opacity:1;" d="M 132.050781 21.5 L 90.625 21.5 L 90.625 53.761719 L 137.5 53.761719 L 137.5 27.75 C 137.5 24.296875 135.058594 21.5 132.050781 21.5 Z M 132.050781 21.5 "/>
<path style=" stroke:none;fill-rule:nonzero;fill:rgb(15.294118%,40.000001%,24.705882%);fill-opacity:1;" d="M 90.625 118.445312 L 90.625 150.5 L 132.054688 150.5 C 135.058594 150.5 137.5 147.703125 137.5 144.253906 L 137.5 118.445312 Z M 90.625 118.445312 "/>
<path style=" stroke:none;fill-rule:nonzero;fill:rgb(9.803922%,67.450982%,39.607844%);fill-opacity:1;" d="M 90.625 53.761719 L 137.5 53.761719 L 137.5 86.019531 L 90.625 86.019531 Z M 90.625 53.761719 "/>
<path style=" stroke:none;fill-rule:nonzero;fill:rgb(7.058824%,58.823532%,32.156864%);fill-opacity:1;" d="M 90.625 86.019531 L 137.5 86.019531 L 137.5 118.445312 L 90.625 118.445312 Z M 90.625 86.019531 "/>
<path style=" stroke:none;fill-rule:nonzero;fill:rgb(4.705882%,44.705883%,21.960784%);fill-opacity:1;" d="M 69.746094 121.832031 L 17.753906 121.832031 C 14.851562 121.832031 12.5 119.136719 12.5 115.808594 L 12.5 56.191406 C 12.5 52.863281 14.851562 50.167969 17.753906 50.167969 L 69.746094 50.167969 C 72.648438 50.167969 75 52.863281 75 56.191406 L 75 115.808594 C 75 119.136719 72.648438 121.832031 69.746094 121.832031 Z M 69.746094 121.832031 "/>
<path style=" stroke:none;fill-rule:nonzero;fill:rgb(100%,100%,100%);fill-opacity:1;" d="M 30.648438 68.082031 L 38.101562 68.082031 L 44.152344 81.535156 L 50.546875 68.082031 L 57.511719 68.082031 L 47.914062 86 L 57.730469 103.917969 L 50.382812 103.917969 L 43.789062 89.835938 L 37.226562 103.917969 L 29.769531 103.917969 L 39.746094 85.933594 Z M 30.648438 68.082031 "/>
</g>
</svg>
